<svg width="17" height="17" viewBox="0 0 17 17" fill="none" xmlns="http://www.w3.org/2000/svg">
<path d="M8.422 0.984985C4.22493 0.984985 0.80481 4.4051 0.80481 8.60217C0.80481 12.7992 4.22493 16.2194 8.422 16.2194C12.6191 16.2194 16.0392 12.7992 16.0392 8.60217C16.0392 4.4051 12.6191 0.984985 8.422 0.984985ZM11.8954 7.3301L8.76478 9.68381C8.74955 9.69143 8.72669 9.69905 8.71145 9.71429C8.6886 9.7219 8.67336 9.72952 8.6505 9.73714C8.58195 9.77522 8.49817 9.79808 8.422 9.79808C8.34583 9.79808 8.26965 9.77522 8.20109 9.74475C8.18586 9.73713 8.17064 9.72952 8.14779 9.7219C8.13256 9.71428 8.1173 9.70667 8.10207 9.69905L5.81691 8.12991C5.55792 7.95472 5.48939 7.5967 5.6722 7.33772C5.8474 7.07873 6.20539 7.01018 6.46437 7.18538L8.40677 8.51838L11.2099 6.41604C11.4613 6.22561 11.8193 6.27893 12.0097 6.5303C12.2001 6.78166 12.1468 7.13967 11.8954 7.3301Z" fill="#1D1D1F"/>
</svg>
