<svg width="50" height="56" viewBox="0 0 50 56" fill="none" xmlns="http://www.w3.org/2000/svg">
<path fill-rule="evenodd" clip-rule="evenodd" d="M8 0C3.58179 0 0 3.58167 0 8V48C0 52.4183 3.58179 56 8 56H42C46.4182 56 50 52.4183 50 48V8C50 3.58167 46.4182 0 42 0H8ZM29.5098 17.657C29.6904 16.9426 29.2507 16.2188 28.5273 16.0402C27.8042 15.8616 27.071 16.2959 26.8904 17.0103L21.4902 38.343C21.3096 39.0574 21.7493 39.7812 22.4727 39.9598C23.1958 40.1384 23.929 39.7041 24.1096 38.9897L29.5098 17.657ZM19.6658 23.6465C20.2136 23.1471 20.2478 22.3036 19.7419 21.7625C19.2363 21.2214 18.3821 21.1876 17.8342 21.6871L12.4343 26.61C12.2991 26.7333 12.1921 26.8813 12.1184 27.0441C12.0483 27.1985 12.0078 27.3661 12.001 27.5385C11.9873 27.8925 12.1167 28.2373 12.3608 28.4969L17.7607 34.2405C18.2681 34.78 19.1223 34.8113 19.6687 34.3102C20.2151 33.8092 20.2466 32.9656 19.7393 32.4259L15.2605 27.6625L19.6658 23.6465ZM33.1658 21.6871C32.6179 21.1876 31.7637 21.2214 31.2581 21.7625C30.7522 22.3036 30.7864 23.1471 31.3342 23.6465L35.7395 27.6625L31.2607 32.4259C30.7534 32.9656 30.7849 33.8092 31.3313 34.3102C31.8777 34.8113 32.7319 34.78 33.2393 34.2405L38.6392 28.4969C38.8833 28.2373 39.0127 27.8925 38.999 27.5385C38.9851 27.1844 38.8293 26.8503 38.5657 26.61L33.1658 21.6871Z" fill="#543FD3"/>
</svg>
