<svg width="50" height="56" viewBox="0 0 50 56" fill="none" xmlns="http://www.w3.org/2000/svg">
<path fill-rule="evenodd" clip-rule="evenodd" d="M6.57895 0C2.9455 0 0 2.98477 0 6.66667V49.3333C0 53.0152 2.94549 56 6.57895 56H43.421C47.0545 56 50 53.0152 50 49.3333V6.66667C50 2.98477 47.0545 0 43.421 0H6.57895ZM11.8421 14.6667C10.3887 14.6667 9.21053 15.8606 9.21053 17.3333C9.21053 18.8061 10.3887 20 11.8421 20H38.1579C39.6113 20 40.7895 18.8061 40.7895 17.3333C40.7895 15.8606 39.6113 14.6667 38.1579 14.6667H11.8421ZM9.21053 28C9.21053 26.5272 10.3887 25.3333 11.8421 25.3333H38.1579C39.6113 25.3333 40.7895 26.5272 40.7895 28C40.7895 29.4728 39.6113 30.6667 38.1579 30.6667H11.8421C10.3887 30.6667 9.21053 29.4728 9.21053 28ZM11.8421 36C10.3887 36 9.21053 37.1939 9.21053 38.6667C9.21053 40.1394 10.3887 41.3333 11.8421 41.3333H26.3158C27.7692 41.3333 28.9474 40.1394 28.9474 38.6667C28.9474 37.1939 27.7692 36 26.3158 36H11.8421Z" fill="#543FD3"/>
</svg>
