<svg width="50" height="56" viewBox="0 0 50 56" fill="none" xmlns="http://www.w3.org/2000/svg">
<path fill-rule="evenodd" clip-rule="evenodd" d="M8 0C3.58179 0 0 3.58167 0 8V48C0 52.4183 3.58179 56 8 56H42C46.4182 56 50 52.4183 50 48V8C50 3.58167 46.4182 0 42 0H8ZM24.1968 16.506C24.7927 14.8484 26.4419 13.8215 28.1799 14.0258C28.438 14.056 28.6907 14.1263 28.9434 14.2192C29.0742 14.2673 29.2051 14.3215 29.3367 14.3794C29.7192 14.5474 30.186 14.7825 30.7598 15.0715L34.4729 16.942C34.7271 17.0701 34.9485 17.1814 35.1465 17.2971C35.2805 17.3756 35.4038 17.4561 35.5193 17.545C36.2554 18.1121 36.7585 18.9323 36.9326 19.8492C37.0002 20.2054 37.0002 20.5814 37 21.0619L36.9998 21.1764C36.9998 21.5714 36.9998 21.9215 36.9949 22.2297C36.9917 22.4258 36.9866 22.605 36.978 22.7682C36.9668 22.9814 36.9492 23.1898 36.9175 23.3917C36.8862 23.5907 36.8411 23.7836 36.7744 23.969C36.1785 25.6265 34.5293 26.6533 32.7915 26.4491C32.3999 26.4031 32.0203 26.2649 31.6345 26.0956C31.4771 26.0262 31.3049 25.9456 31.1169 25.8545C30.8491 25.7245 30.5488 25.5732 30.2117 25.4034L26.4985 23.5328C26.3279 23.447 26.1721 23.3687 26.0286 23.2915V35.4365C26.0286 39.0615 23.1121 42 19.5142 42C15.9165 42 13 39.0615 13 35.4365C13 31.8115 15.9165 28.873 19.5142 28.873C21.2385 28.873 22.8062 29.548 23.9714 30.6499V19.5037V19.4839L23.9717 18.8551C23.9722 18.6586 23.9731 18.4751 23.9756 18.3041C23.9788 18.0848 23.9841 17.8861 23.9934 17.7067C24.0154 17.2833 24.0625 16.8795 24.1968 16.506Z" fill="#543FD3"/>
</svg>
