<svg width="50" height="56" viewBox="0 0 50 56" fill="none" xmlns="http://www.w3.org/2000/svg">
<path fill-rule="evenodd" clip-rule="evenodd" d="M8 0C3.58179 0 0 3.58167 0 8V48C0 52.4183 3.58179 56 8 56H42C46.4182 56 50 52.4183 50 48V8C50 3.58167 46.4182 0 42 0H8ZM22.0684 31.3643H26.0381C26.0479 30.6025 26.1553 29.958 26.3604 29.4307C26.5654 28.8936 26.9463 28.376 27.5029 27.8779C28.1572 27.2822 28.7529 26.7109 29.29 26.1641C29.8271 25.6074 30.2568 25.0117 30.5791 24.377C30.9014 23.7324 31.0625 22.9854 31.0625 22.1357C31.0625 20.8955 30.7939 19.8457 30.2568 18.9863C29.7295 18.127 28.9629 17.4775 27.957 17.0381C26.9609 16.5986 25.7646 16.3789 24.3682 16.3789C23.1084 16.3789 21.9658 16.5938 20.9404 17.0234C19.9248 17.4434 19.1143 18.1025 18.5088 19.001C17.9033 19.8896 17.5859 21.0322 17.5566 22.4287H22.1562C22.1758 21.8428 22.2881 21.3691 22.4932 21.0078C22.6982 20.6465 22.9668 20.3828 23.2988 20.2168C23.6309 20.041 23.9873 19.9531 24.3682 19.9531C24.8271 19.9531 25.208 20.0459 25.5107 20.2314C25.8232 20.4072 26.0576 20.6709 26.2139 21.0225C26.3799 21.3643 26.4629 21.8037 26.4629 22.3408C26.4629 22.79 26.3701 23.2051 26.1846 23.5859C25.999 23.9668 25.7354 24.3379 25.3936 24.6992C25.0518 25.0508 24.6514 25.4268 24.1924 25.8271C23.665 26.3057 23.2451 26.8086 22.9326 27.3359C22.6201 27.8535 22.3955 28.4395 22.2588 29.0938C22.1697 29.5457 22.1121 30.0527 22.0854 30.615C22.074 30.8547 22.0684 31.1045 22.0684 31.3643ZM22.2441 34.1914C21.7754 34.6406 21.541 35.1924 21.541 35.8467C21.541 36.5107 21.7754 37.0674 22.2441 37.5166C22.7227 37.9561 23.3428 38.1758 24.1045 38.1758C24.8662 38.1758 25.4814 37.9561 25.9502 37.5166C26.4189 37.0674 26.6533 36.5107 26.6533 35.8467C26.6533 35.1924 26.4189 34.6406 25.9502 34.1914C25.4814 33.7422 24.8662 33.5176 24.1045 33.5176C23.3428 33.5176 22.7227 33.7422 22.2441 34.1914Z" fill="#543FD3"/>
</svg>
