<svg width="50" height="56" viewBox="0 0 50 56" fill="none" xmlns="http://www.w3.org/2000/svg">
<path fill-rule="evenodd" clip-rule="evenodd" d="M8 0C3.58179 0 0 3.58167 0 8V48C0 52.4183 3.58179 56 8 56H42C46.4182 56 50 52.4183 50 48V8C50 3.58167 46.4182 0 42 0H8ZM11.4248 16.4247C11.1528 16.6967 11 17.0654 11 17.45C11 17.8346 11.1528 18.2034 11.4248 18.4752C11.6965 18.7472 12.0654 18.9 12.45 18.9V34.8497C12.45 35.2344 12.6028 35.6031 12.8748 35.8751C13.1467 36.147 13.5154 36.2998 13.8999 36.2998H20.5889L18.3254 43.0914C18.2039 43.4564 18.2324 43.8547 18.4045 44.1987C18.5767 44.5427 18.8784 44.8042 19.2432 44.9258C19.6082 45.0472 20.0066 45.0188 20.3506 44.8467C20.6943 44.6746 20.9561 44.3728 21.0774 44.0079L23.647 36.2998H27.356L29.9238 44.0079C30.0454 44.3728 30.3069 44.6746 30.6509 44.8467C30.9949 45.0188 31.3933 45.0472 31.7583 44.9258C32.123 44.8042 32.4248 44.5427 32.5969 44.1987C32.769 43.8547 32.7976 43.4564 32.676 43.0914L30.4111 36.2998H37.1001C37.4846 36.2998 37.8533 36.147 38.1252 35.8751C38.3972 35.6031 38.55 35.2344 38.55 34.8497V18.9C38.9346 18.9 39.3035 18.7472 39.5752 18.4752C39.8472 18.2034 40 17.8346 40 17.45C40 17.0654 39.8472 16.6967 39.5752 16.4247C39.3035 16.1527 38.9346 16 38.55 16H12.45C12.0654 16 11.6965 16.1527 11.4248 16.4247ZM24.1204 21.8014C24.3826 21.8142 24.6365 21.8978 24.8547 22.0436L29.2048 24.9435C29.4033 25.0759 29.5662 25.2552 29.6787 25.4657C29.7915 25.6761 29.8503 25.9113 29.8503 26.1499C29.8503 26.3885 29.7915 26.6235 29.6787 26.834C29.5662 27.0444 29.4033 27.2239 29.2048 27.3563L24.8547 30.2562C24.6365 30.402 24.3826 30.4856 24.1204 30.4983C23.8582 30.5111 23.5974 30.4524 23.366 30.3286C23.1345 30.2047 22.9409 30.0204 22.8062 29.7952C22.6711 29.5699 22.5999 29.3124 22.6001 29.0498V23.2499C22.5999 22.9874 22.6711 22.7299 22.8062 22.5046C22.9409 22.2794 23.1345 22.0951 23.366 21.9712C23.5974 21.8474 23.8582 21.7887 24.1204 21.8014Z" fill="#543FD3"/>
</svg>
