<svg width="50" height="56" viewBox="0 0 50 56" fill="none" xmlns="http://www.w3.org/2000/svg">
<path fill-rule="evenodd" clip-rule="evenodd" d="M8 0C3.58179 0 0 3.58167 0 8V48C0 52.4183 3.58179 56 8 56H42C46.4182 56 50 52.4183 50 48V8C50 3.58167 46.4182 0 42 0H8ZM17.0789 9C17.0789 8.17163 16.4075 7.5 15.5789 7.5C14.7505 7.5 14.0789 8.17163 14.0789 9V14.9546H8C7.17163 14.9546 6.5 15.6261 6.5 16.4546C6.5 17.283 7.17163 17.9546 8 17.9546H14.0789V50C14.0789 50.8284 14.7505 51.5 15.5789 51.5C16.4075 51.5 17.0789 50.8284 17.0789 50V17.9546H44C44.8284 17.9546 45.5 17.283 45.5 16.4546C45.5 15.6261 44.8284 14.9546 44 14.9546H17.0789V9Z" fill="#543FD3"/>
</svg>
