<svg width="50" height="56" viewBox="0 0 50 56" fill="none" xmlns="http://www.w3.org/2000/svg">
<path fill-rule="evenodd" clip-rule="evenodd" d="M8 0C3.58179 0 0 3.58167 0 8V48C0 52.4183 3.58179 56 8 56H42C46.4182 56 50 52.4183 50 48V8C50 3.58167 46.4182 0 42 0H8ZM16.8447 33V24.189H20.0894V22.3359H16.8447H14.4644H11.2856V24.189H14.4644V33H16.8447ZM25.165 25.9688L23.29 22.3359H20.5654L23.605 27.624L20.4849 33H23.2388L25.165 29.3013L27.0986 33H29.8452L26.7324 27.624L29.7646 22.3359H27.04L25.165 25.9688ZM35.7852 33V24.189H39.0298V22.3359H35.7852H33.4048H30.2261V24.189H33.4048V33H35.7852Z" fill="#543FD3"/>
</svg>
